<svg xmlns="http://www.w3.org/2000/svg" width="46" height="46" viewBox="0 0 46 46"><g><g><path fill="#e8663c" d="M41.073 26.326c-.178.968-.429 1.91-.752 2.82l4.058 2.796-2.943 5.095-4.456-2.117c-.632.74-1.321 1.43-2.061 2.061l2.118 4.457-5.096 2.941-2.797-4.057a18.27 18.27 0 0 1-2.82.753l-.393 4.915h-5.885l-.393-4.915a18.353 18.353 0 0 1-2.82-.752l-2.796 4.056-5.096-2.941 2.118-4.456a18.545 18.545 0 0 1-2.063-2.061l-4.454 2.116L1.6 31.943l4.056-2.798a18.223 18.223 0 0 1-.752-2.82l-4.915-.393v-5.884l4.915-.393c.178-.969.429-1.911.752-2.821l-4.057-2.796L4.54 8.943l4.455 2.117A18.46 18.46 0 0 1 11.058 9L8.94 4.543 14.036 1.6l2.796 4.057c.91-.323 1.852-.574 2.82-.752l.394-4.916h5.884l.394 4.916c.968.178 1.91.43 2.82.752L31.941 1.6l5.096 2.943-2.118 4.456a18.57 18.57 0 0 1 2.061 2.061l4.456-2.118 2.943 5.095-4.058 2.797c.323.91.574 1.851.752 2.82l4.915.393v5.885zm-6.585-3.336c0-6.352-5.148-11.5-11.5-11.5-6.351 0-11.5 5.148-11.5 11.5 0 6.351 5.149 11.5 11.5 11.5 6.352 0 11.5-5.149 11.5-11.5z"/></g></g></svg>